<?xml version="1.0" encoding="UTF-8"?>
<svg id="Layer_2" data-name="Layer 2" xmlns="http://www.w3.org/2000/svg" viewBox="0 0 1109.35 504.62">
  <defs>
    <style>
      .cls-1 {
        fill: #2f2f2f;
      }

      .cls-1, .cls-2, .cls-3 {
        stroke-width: 0px;
      }

      .cls-2 {
        fill: #059666;
      }

      .cls-3 {
        fill: #fdfdfd;
      }
    </style>
  </defs>
  <g id="Layer_1-2" data-name="Layer 1">
    <g>
      <g>
        <path class="cls-3" d="m500,254.55c0,138.07-111.94,250-250,250H0V4.55h250c138.07,0,250,111.93,250,250Z"/>
        <polygon class="cls-1" points="49.43 4.79 99.54 4.79 99.54 54.79 74.48 35.04 49.43 54.79 49.43 4.79"/>
        <path class="cls-1" d="m343.65,163.4c0,41.42-33.58,75-75,75H118.65V88.4h150c41.42,0,75,33.58,75,75Z"/>
        <path class="cls-1" d="m343.93,347.4c0,41.42-33.58,75-75,75H118.93v-150h150c41.42,0,75,33.58,75,75Z"/>
        <g>
          <path class="cls-2" d="m214.28,375h-7.76v-.05h7.74c0-.21,0-.41,0-.62.01.22.02.45.02.67Z"/>
          <path class="cls-2" d="m229.8,375h-7.76v-.05h7.74c0-.23,0-.47.01-.7,0,.25.01.5.01.75Z"/>
          <path class="cls-2" d="m245.31,374.45c-.01.16-.02.33-.02.5h-7.74c0-.22,0-.43,0-.64-.09-4.78-1.06-9.35-2.77-13.54-1.04-2.54-2.35-4.95-3.89-7.18-1.3-1.88-2.76-3.63-4.37-5.24-.21-.21-.42-.42-.64-.62-1.87-1.79-3.93-3.38-6.14-4.76-5.77-3.59-12.58-5.66-19.87-5.66h-32.36c-4.16,0-7.54-3.37-7.54-7.54h40.12c9.58,0,18.47,2.98,25.78,8.06,2.19,1.53,4.25,3.24,6.14,5.12,1.83,1.82,3.51,3.8,5,5.92,1.47,2.07,2.77,4.28,3.88,6.59,1.12,2.34,2.05,4.8,2.76,7.35,1.03,3.71,1.61,7.6,1.66,11.63Z"/>
          <path class="cls-2" d="m245.31,375h-7.76v-.05h7.74c0-.17,0-.34.02-.5,0,.18,0,.37,0,.55Z"/>
          <path class="cls-2" d="m237.55,374.31c0,.21,0,.43,0,.64h-.02c0-.22,0-.43.02-.64Z"/>
          <path class="cls-2" d="m307.36,359.88c0,4.16-3.37,7.54-7.54,7.54h-46.99c-2.08,0-3.96.84-5.33,2.21-1.25,1.25-2.07,2.95-2.19,4.83-.05-4.02-.62-7.92-1.66-11.63,2.5-1.85,5.6-2.95,8.95-2.95h54.75Z"/>
          <path class="cls-2" d="m229.79,374.25h0c0,.24-.01.47-.01.71h-7.74c0-.23,0-.45-.01-.68h0c-.16-5.1-2.01-9.78-5.01-13.48h0c-.5-.62-1.03-1.21-1.6-1.77-1.35-1.35-2.87-2.53-4.53-3.51-3.36-1.98-7.28-3.11-11.46-3.11h-47.21c0-2.08.84-3.97,2.21-5.33,1.37-1.36,3.25-2.21,5.33-2.21h39.9c5.5,0,10.66,1.48,15.1,4.05,2.24,1.3,4.3,2.88,6.13,4.7,1.95,1.94,3.64,4.14,5.01,6.55,2.37,4.18,3.77,8.98,3.89,14.09Z"/>
          <path class="cls-2" d="m222.03,374.27c0,.23.01.45.01.68h-.02c0-.23,0-.46,0-.68Z"/>
          <path class="cls-2" d="m299.6,352.34h-47.21c-4.2,0-8.13,1.14-11.49,3.14-1.11-2.31-2.41-4.52-3.88-6.59,4.45-2.59,9.63-4.08,15.15-4.08h39.9c2.08,0,3.97.84,5.33,2.21,1.36,1.36,2.21,3.25,2.21,5.33Z"/>
          <path class="cls-2" d="m214.27,374.32h0v.02c0,.21,0,.41,0,.62h-7.74c0-.15,0-.3-.02-.45h0c-.13-1.89-.94-3.58-2.19-4.83-1.36-1.36-3.25-2.21-5.33-2.21h-46.99c-4.16,0-7.54-3.37-7.54-7.54h54.75c3.34,0,6.43,1.09,8.93,2.93,3.55,2.62,5.92,6.76,6.13,11.46Z"/>
          <path class="cls-2" d="m206.51,374.51c.01.15.02.3.02.45h-.02c0-.15,0-.3,0-.45Z"/>
          <path class="cls-2" d="m291.84,329.73c0,4.16-3.37,7.54-7.54,7.54h-32.36c-7.32,0-14.15,2.09-19.94,5.7-1.89-1.88-3.94-3.6-6.14-5.12,7.33-5.11,16.24-8.11,25.85-8.11h40.12Z"/>
        </g>
      </g>
      <g>
        <g>
          <path class="cls-3" d="m616.8,3.78c21.23,0,30.33,13.13,30.33,33.77s-8.75,33.82-30.33,33.82h-17.7V3.78h17.7Zm-14.17,64.3h14.22c18.75,0,26.7-11.79,26.7-30.53s-8.16-30.48-26.7-30.48h-14.22v61.02Z"/>
          <path class="cls-3" d="m658.23,56.99c0-8.45,5.87-14.22,17.36-14.22h16.06v-7.56c0-8.85-5.67-12.88-14.02-12.88s-12.53,3.93-13.67,10.34h-3.43c.9-7.91,6.42-13.58,17.31-13.58s17.31,5.42,17.31,15.37v36.9h-3.48v-8.5h-.2c-1.14,3.13-6.22,9.4-16.46,9.4s-16.76-5.82-16.76-15.27Zm33.42-2.88v-8.21h-16.01c-9.45,0-13.67,4.58-13.67,11.04,0,7.46,5.57,12.08,13.38,12.08,8.8,0,16.31-5.92,16.31-14.92Z"/>
          <path class="cls-3" d="m704.68,19.99h3.83l16.96,46.84h.25l17.06-46.84h3.68l-19.05,51.37h-3.73l-19-51.37Z"/>
          <path class="cls-3" d="m758.99,2.98c1.89,0,3.33,1.49,3.33,3.33s-1.44,3.28-3.33,3.28-3.28-1.44-3.28-3.28,1.44-3.33,3.28-3.33Zm-1.74,17.01h3.48v51.37h-3.48V19.99Z"/>
          <path class="cls-3" d="m812.35,30.14h.2V0h3.48v71.36h-3.43v-10.34h-.2c-1.04,3.18-5.57,11.24-17.06,11.24s-19.54-8.45-19.54-21.83v-9.4c0-14.52,9.25-21.93,19.64-21.93s15.47,6.91,16.91,11.04Zm-33.02,11.59v8.16c0,12.33,7.26,19.15,16.21,19.15,10.99,0,17.01-9.1,17.01-19.05v-8.35c0-10.89-6.61-19.24-17.01-19.24-8.3,0-16.21,5.97-16.21,19.34Z"/>
        </g>
        <g>
          <path class="cls-3" d="m599.1,148.15h21.43c12.33,0,19.84,6.17,19.84,16.51s-7.31,14.82-11.79,15.76v.25c7.81.75,15.51,5.77,15.51,16.81s-7.61,18.25-22.08,18.25h-22.92v-67.58Zm3.53,31.23h17.65c8.8,0,16.41-4.53,16.41-14.22,0-8.85-6.22-13.73-16.71-13.73h-17.36v27.95Zm0,33.07h18.7c12.43,0,19.15-5.57,19.15-14.87,0-10.29-8.25-14.92-18.3-14.92h-19.54v29.79Z"/>
          <path class="cls-3" d="m655.65,193.05v-5.42c0-15.81,7.91-24.17,19.84-24.17s19.89,8.35,19.89,24.27v2.49h-36.25v2.74c0,13.23,6.61,20.44,16.96,20.44,9.7,0,14.37-5.82,15.02-10.54h3.53c-.7,6.02-6.42,13.77-18.6,13.77s-20.39-8.55-20.39-23.57Zm36.2-5.97v-.2c0-12.73-6.51-20.19-16.36-20.19s-16.36,7.46-16.36,20.19v.2h32.72Z"/>
          <path class="cls-3" d="m704.53,212.9l31.38-45.2v-.2h-31.38v-3.13h35.7v2.98l-31.33,45.05v.25h31.38v3.08h-35.75v-2.83Z"/>
          <path class="cls-3" d="m753.12,144.37h3.48v29.94h.2c1.64-5.12,7.06-10.84,16.86-10.84s17.8,6.61,17.8,18.55v33.72h-3.48v-33.32c0-8.9-5.37-15.66-14.72-15.66-11.04,0-16.66,8.7-16.66,17.7v31.28h-3.48v-71.36Z"/>
          <path class="cls-3" d="m845.67,215.73h-3.48v-9.95h-.2c-1.74,4.87-6.96,10.84-16.96,10.84s-17.46-5.67-17.46-17.45v-34.81h3.48v34.21c0,9.1,5.57,14.77,14.37,14.77,10.99,0,16.76-9,16.76-18.35v-30.63h3.48v51.37Z"/>
          <path class="cls-3" d="m859.5,201.36c0-8.45,5.87-14.22,17.36-14.22h16.06v-7.56c0-8.85-5.67-12.88-14.02-12.88s-12.53,3.93-13.67,10.34h-3.43c.9-7.91,6.42-13.58,17.31-13.58s17.31,5.42,17.31,15.37v36.9h-3.48v-8.5h-.2c-1.14,3.13-6.22,9.4-16.46,9.4s-16.76-5.82-16.76-15.27Zm33.42-2.88v-8.21h-16.01c-9.45,0-13.67,4.58-13.67,11.04,0,7.46,5.57,12.08,13.38,12.08,8.8,0,16.31-5.92,16.31-14.92Z"/>
          <path class="cls-3" d="m928.33,163.46c12.68,0,17.06,8.11,17.06,13.58h-3.43c-.05-3.78-3.28-10.34-13.72-10.34-7.41,0-13.53,3.28-13.53,10.54,0,6.42,5.07,8.35,13.92,10.79,9.1,2.44,17.8,4.28,17.8,14.12s-8.7,14.47-18.85,14.47c-13.38,0-18.3-8.01-18.3-14.02h3.43c.15,4.23,3.88,10.84,14.92,10.84,8.21,0,15.17-3.58,15.17-11.24,0-6.71-5.32-8.21-15.12-10.89-9.75-2.74-16.56-5.27-16.56-13.87s7.16-13.97,17.21-13.97Z"/>
          <path class="cls-3" d="m960.55,144.37h3.48v29.94h.2c1.64-5.12,7.06-10.84,16.86-10.84s17.8,6.61,17.8,18.55v33.72h-3.48v-33.32c0-8.9-5.37-15.66-14.72-15.66-11.04,0-16.66,8.7-16.66,17.7v31.28h-3.48v-71.36Z"/>
          <path class="cls-3" d="m1008.45,164.36h3.83l16.96,46.84h.25l17.06-46.84h3.68l-19.05,51.37h-3.73l-19-51.37Z"/>
          <path class="cls-3" d="m1062.75,147.35c1.89,0,3.33,1.49,3.33,3.33s-1.44,3.28-3.33,3.28-3.28-1.44-3.28-3.28,1.44-3.33,3.28-3.33Zm-1.74,17.01h3.48v51.37h-3.48v-51.37Z"/>
          <path class="cls-3" d="m1082.65,144.37h3.48v71.36h-3.48v-71.36Z"/>
          <path class="cls-3" d="m1106.02,147.35c1.89,0,3.33,1.49,3.33,3.33s-1.44,3.28-3.33,3.28-3.28-1.44-3.28-3.28,1.44-3.33,3.28-3.33Zm-1.74,17.01h3.48v51.37h-3.48v-51.37Z"/>
        </g>
        <g>
          <path class="cls-3" d="m637.44,360.1h-38.34v-67.58h38.34v3.28h-34.81v28h33.12v3.28h-33.12v29.74h34.81v3.28Z"/>
          <path class="cls-3" d="m684.39,318.87h.2v-30.14h3.48v71.36h-3.43v-10.34h-.2c-1.04,3.18-5.57,11.24-17.06,11.24s-19.54-8.45-19.54-21.83v-9.4c0-14.52,9.25-21.93,19.64-21.93s15.47,6.91,16.91,11.04Zm-33.02,11.59v8.16c0,12.33,7.26,19.15,16.21,19.15,10.99,0,17.01-9.1,17.01-19.05v-8.35c0-10.89-6.61-19.24-17.01-19.24-8.3,0-16.21,5.97-16.21,19.34Z"/>
          <path class="cls-3" d="m742.82,360.1h-3.48v-9.95h-.2c-1.74,4.87-6.96,10.84-16.96,10.84s-17.46-5.67-17.46-17.45v-34.81h3.48v34.21c0,9.1,5.57,14.77,14.37,14.77,10.99,0,16.76-9,16.76-18.35v-30.63h3.48v51.37Z"/>
          <path class="cls-3" d="m757.6,330.31c0-14.47,8.45-22.48,20.09-22.48,12.28,0,18.55,8.3,19.05,15.66h-3.43c-.94-6.22-6.17-12.38-15.56-12.38s-16.66,7.01-16.66,19.84v6.76c0,13.03,6.61,19.99,17.06,19.99s14.27-5.97,15.27-11.49h3.38c-.85,6.86-6.07,14.77-18.95,14.77s-20.24-8.06-20.24-22.88v-7.81Z"/>
          <path class="cls-3" d="m807.98,345.73c0-8.45,5.87-14.22,17.36-14.22h16.06v-7.56c0-8.85-5.67-12.88-14.02-12.88s-12.53,3.93-13.67,10.34h-3.43c.9-7.91,6.42-13.58,17.31-13.58s17.31,5.42,17.31,15.37v36.9h-3.48v-8.5h-.2c-1.14,3.13-6.22,9.4-16.46,9.4s-16.76-5.82-16.76-15.27Zm33.42-2.88v-8.21h-16.01c-9.45,0-13.67,4.58-13.67,11.04,0,7.46,5.57,12.08,13.38,12.08,8.8,0,16.31-5.92,16.31-14.92Z"/>
          <path class="cls-3" d="m863.78,296.3h3.48v12.43h13.13v3.08h-13.13v37.74c0,6.27,2.64,8.01,9.15,8.01,1.74,0,3.48-.15,4.67-.4v2.93c-1.04.25-2.79.5-5.27.5-9.2,0-12.03-3.13-12.03-11.88v-36.9h-8.35v-3.08h8.35v-12.43Z"/>
          <path class="cls-3" d="m894.81,291.72c1.89,0,3.33,1.49,3.33,3.33s-1.44,3.28-3.33,3.28-3.28-1.44-3.28-3.28,1.44-3.33,3.28-3.33Zm-1.74,17.01h3.48v51.37h-3.48v-51.37Z"/>
          <path class="cls-3" d="m953.29,330.71v7.61c0,14.72-9.05,22.68-20.89,22.68s-20.79-8.01-20.79-22.68v-7.61c0-14.77,8.8-22.88,20.79-22.88s20.89,8.3,20.89,22.88Zm-38.19.45v6.76c0,13.08,7.36,19.84,17.36,19.84s17.3-6.61,17.3-19.84v-6.76c0-13.13-7.51-20.09-17.35-20.09s-17.31,6.86-17.31,20.09Z"/>
          <path class="cls-3" d="m968.01,308.73h3.53v9.95h.2c1.64-5.12,6.96-10.84,16.76-10.84s17.7,6.61,17.7,18.55v33.72h-3.48v-33.32c0-8.9-5.27-15.66-14.62-15.66-11.04,0-16.56,8.7-16.56,17.7v31.28h-3.53v-51.37Z"/>
        </g>
        <g>
          <path class="cls-3" d="m599.85,475.68c0,13.58,6.37,25.71,21.93,25.71,12.08,0,20.04-7.66,20.04-17.16h3.48v.15c0,10.84-9.15,20.24-23.52,20.24-18.15,0-25.46-13.33-25.46-29.39v-11.83c0-16.01,7.71-29.54,25.21-29.54,15.17,0,23.22,10.84,23.22,20.39v.2h-3.43c-.05-7.96-7.06-17.36-19.79-17.36-15.07,0-21.68,12.08-21.68,25.76v12.83Z"/>
          <path class="cls-3" d="m657.54,480.35v-5.42c0-15.81,7.91-24.17,19.84-24.17s19.89,8.35,19.89,24.27v2.49h-36.25v2.74c0,13.23,6.61,20.44,16.96,20.44,9.7,0,14.37-5.82,15.02-10.54h3.53c-.7,6.02-6.42,13.77-18.6,13.77s-20.39-8.55-20.39-23.57Zm36.2-5.97v-.2c0-12.73-6.51-20.19-16.36-20.19s-16.36,7.46-16.36,20.19v.2h32.72Z"/>
          <path class="cls-3" d="m711.89,451.66h3.53v9.95h.2c1.64-5.12,6.96-10.84,16.76-10.84s17.7,6.61,17.7,18.55v33.72h-3.48v-33.32c0-8.9-5.27-15.66-14.62-15.66-11.04,0-16.56,8.7-16.56,17.7v31.28h-3.53v-51.37Z"/>
          <path class="cls-3" d="m768.99,439.22h3.48v12.43h13.13v3.08h-13.13v37.74c0,6.27,2.63,8.01,9.15,8.01,1.74,0,3.48-.15,4.67-.4v2.93c-1.04.25-2.79.5-5.27.5-9.2,0-12.03-3.13-12.03-11.88v-36.9h-8.35v-3.08h8.35v-12.43Z"/>
          <path class="cls-3" d="m795,480.35v-5.42c0-15.81,7.91-24.17,19.84-24.17s19.89,8.35,19.89,24.27v2.49h-36.25v2.74c0,13.23,6.61,20.44,16.96,20.44,9.7,0,14.37-5.82,15.02-10.54h3.53c-.7,6.02-6.42,13.77-18.6,13.77s-20.39-8.55-20.39-23.57Zm36.2-5.97v-.2c0-12.73-6.51-20.19-16.36-20.19s-16.36,7.46-16.36,20.19v.2h32.72Z"/>
          <path class="cls-3" d="m849.35,451.66h3.53v10h.2c1.49-5.32,5.22-10.79,14.57-10.79,2.09,0,3.28.3,3.93.4v3.33c-.55-.1-2.39-.45-4.33-.45-9.4,0-14.37,7.51-14.37,19.15v29.74h-3.53v-51.37Z"/>
        </g>
      </g>
    </g>
  </g>
</svg>