<?xml version="1.0" encoding="UTF-8"?>
<svg id="Layer_2" data-name="Layer 2" xmlns="http://www.w3.org/2000/svg" viewBox="0 0 1221.34 500">
  <defs>
    <style>
      .cls-1 {
        fill: #2f2f2f;
      }

      .cls-1, .cls-2, .cls-3 {
        stroke-width: 0px;
      }

      .cls-2 {
        fill: #059666;
      }

      .cls-3 {
        fill: #fdfdfd;
      }
    </style>
  </defs>
  <g id="Layer_1-2" data-name="Layer 1">
    <g>
      <g>
        <path class="cls-3" d="m500,250c0,138.07-111.94,250-250,250H0V0h250c138.07,0,250,111.93,250,250Z"/>
        <polygon class="cls-1" points="49.43 .24 99.54 .24 99.54 50.24 74.48 30.49 49.43 50.24 49.43 .24"/>
        <path class="cls-1" d="m343.65,158.85c0,41.42-33.58,75-75,75H118.65V83.85h150c41.42,0,75,33.58,75,75Z"/>
        <path class="cls-1" d="m343.93,342.85c0,41.42-33.58,75-75,75H118.93v-150h150c41.42,0,75,33.58,75,75Z"/>
        <g>
          <path class="cls-2" d="m214.28,370.46h-7.76v-.05h7.74c0-.21,0-.41,0-.62.01.22.02.45.02.67Z"/>
          <path class="cls-2" d="m229.8,370.46h-7.76v-.05h7.74c0-.23,0-.47.01-.7,0,.25.01.5.01.75Z"/>
          <path class="cls-2" d="m245.31,369.91c-.01.16-.02.33-.02.5h-7.74c0-.22,0-.43,0-.64-.09-4.78-1.06-9.35-2.77-13.54-1.04-2.54-2.35-4.95-3.89-7.18-1.3-1.88-2.76-3.63-4.37-5.24-.21-.21-.42-.42-.64-.62-1.87-1.79-3.93-3.38-6.14-4.76-5.77-3.59-12.58-5.66-19.87-5.66h-32.36c-4.16,0-7.54-3.37-7.54-7.54h40.12c9.58,0,18.47,2.98,25.78,8.06,2.19,1.53,4.25,3.24,6.14,5.12,1.83,1.82,3.51,3.8,5,5.92,1.47,2.07,2.77,4.28,3.88,6.59,1.12,2.34,2.05,4.8,2.76,7.35,1.03,3.71,1.61,7.6,1.66,11.63Z"/>
          <path class="cls-2" d="m245.31,370.46h-7.76v-.05h7.74c0-.17,0-.34.02-.5,0,.18,0,.37,0,.55Z"/>
          <path class="cls-2" d="m237.55,369.76c0,.21,0,.43,0,.64h-.02c0-.22,0-.43.02-.64Z"/>
          <path class="cls-2" d="m307.36,355.33c0,4.16-3.37,7.54-7.54,7.54h-46.99c-2.08,0-3.96.84-5.33,2.21-1.25,1.25-2.07,2.95-2.19,4.83-.05-4.02-.62-7.92-1.66-11.63,2.5-1.85,5.6-2.95,8.95-2.95h54.75Z"/>
          <path class="cls-2" d="m229.79,369.7h0c0,.24-.01.47-.01.71h-7.74c0-.23,0-.45-.01-.68h0c-.16-5.1-2.01-9.78-5.01-13.48h0c-.5-.62-1.03-1.21-1.6-1.77-1.35-1.35-2.87-2.53-4.53-3.51-3.36-1.98-7.28-3.11-11.46-3.11h-47.21c0-2.08.84-3.97,2.21-5.33,1.37-1.36,3.25-2.21,5.33-2.21h39.9c5.5,0,10.66,1.48,15.1,4.05,2.24,1.3,4.3,2.88,6.13,4.7,1.95,1.94,3.64,4.14,5.01,6.55,2.37,4.18,3.77,8.98,3.89,14.09Z"/>
          <path class="cls-2" d="m222.03,369.72c0,.23.01.45.01.68h-.02c0-.23,0-.46,0-.68Z"/>
          <path class="cls-2" d="m299.6,347.8h-47.21c-4.2,0-8.13,1.14-11.49,3.14-1.11-2.31-2.41-4.52-3.88-6.59,4.45-2.59,9.63-4.08,15.15-4.08h39.9c2.08,0,3.97.84,5.33,2.21,1.36,1.36,2.21,3.25,2.21,5.33Z"/>
          <path class="cls-2" d="m214.27,369.77h0v.02c0,.21,0,.41,0,.62h-7.74c0-.15,0-.3-.02-.45h0c-.13-1.89-.94-3.58-2.19-4.83-1.36-1.36-3.25-2.21-5.33-2.21h-46.99c-4.16,0-7.54-3.37-7.54-7.54h54.75c3.34,0,6.43,1.09,8.93,2.93,3.55,2.62,5.92,6.76,6.13,11.46Z"/>
          <path class="cls-2" d="m206.51,369.96c.01.15.02.3.02.45h-.02c0-.15,0-.3,0-.45Z"/>
          <path class="cls-2" d="m291.84,325.19c0,4.16-3.37,7.54-7.54,7.54h-32.36c-7.32,0-14.15,2.09-19.94,5.7-1.89-1.88-3.94-3.6-6.14-5.12,7.33-5.11,16.24-8.11,25.85-8.11h40.12Z"/>
        </g>
      </g>
      <g>
        <g>
          <path class="cls-3" d="m647.05,62.33c-1.25-1.43-2.84-2.62-4.77-3.56-1.93-.94-4.09-1.64-6.46-2.1-2.38-.46-4.87-.69-7.49-.69h-17.13v-4.02h10.69v-.18c-2.59-.67-5.1-1.76-7.54-3.27-2.44-1.51-4.63-3.44-6.58-5.8s-3.49-5.12-4.64-8.29c-1.14-3.17-1.71-6.76-1.71-10.78v-.09c0-4.81.75-8.93,2.26-12.36s3.62-6.06,6.33-7.9c2.71-1.84,5.86-2.76,9.46-2.76,3.93,0,7.28,1.13,10.05,3.38,2.77,2.25,4.51,5.48,5.21,9.68h.14c1.07-3.93,3.18-7.09,6.35-9.48,3.17-2.39,6.99-3.59,11.46-3.59,4.05,0,7.6.96,10.67,2.88,3.06,1.92,5.44,4.56,7.15,7.92,1.71,3.37,2.56,7.24,2.56,11.62v.05c0,4.35-.87,8.2-2.6,11.53-1.74,3.33-4.15,5.93-7.24,7.79-3.09,1.86-6.69,2.79-10.8,2.79s-7.52-.91-10.6-2.72c-3.08-1.81-5.49-4.35-7.24-7.63-1.75-3.27-2.63-7.1-2.63-11.49,0-.52,0-.96.02-1.32.02-.37.02-.79.02-1.28,0-5.02-1.13-8.86-3.4-11.51-2.27-2.65-5.28-3.97-9.02-3.97-4.11,0-7.3,1.61-9.57,4.82-2.27,3.21-3.4,7.74-3.4,13.59v.09c0,5.18,1.07,9.68,3.22,13.5,2.15,3.82,5.13,6.94,8.95,9.34,3.82,2.41,8.23,4.08,13.22,5.02l2.24.46c3.04.55,5.76,1.27,8.15,2.17,2.39.9,4.45,1.99,6.17,3.27,1.72,1.28,3.07,2.75,4.04,4.41.97,1.66,1.58,3.52,1.83,5.6h-5.02c-.3-1.98-1.08-3.68-2.33-5.12Zm13.5-23.66c2.33-1.46,4.16-3.53,5.5-6.21,1.34-2.68,2.01-5.83,2.01-9.46v-.05c0-3.59-.67-6.72-2.01-9.39-1.34-2.66-3.19-4.73-5.55-6.21-2.36-1.48-5.06-2.22-8.11-2.22-2.86,0-5.47.69-7.81,2.08-2.35,1.39-4.2,3.4-5.57,6.03-1.37,2.63-2.06,5.82-2.06,9.57v.05c0,3.65.66,6.84,1.99,9.55,1.32,2.71,3.16,4.8,5.5,6.26,2.34,1.46,5.02,2.19,8.04,2.19s5.73-.73,8.06-2.19Z"/>
          <path class="cls-3" d="m688.09,65.44c-3.33-2.01-5.92-4.8-7.74-8.38s-2.74-7.7-2.74-12.36v-.09c0-1.28.09-2.6.27-3.95.18-1.35.46-2.67.82-3.95h5.02c-.34,1.25-.59,2.53-.75,3.84-.17,1.31-.25,2.63-.25,3.97v.09c0,3.9.72,7.29,2.15,10.16,1.43,2.88,3.43,5.1,6.01,6.67,2.57,1.57,5.56,2.35,8.98,2.35s6.41-.79,9-2.38c2.59-1.58,4.61-3.79,6.05-6.62s2.17-6.12,2.17-9.87v-.05c-.03-3.14-.43-5.9-1.21-8.29-.78-2.39-1.8-4.54-3.06-6.46-1.26-1.92-2.64-3.75-4.13-5.48l-3.24-3.75c-2.31-2.68-4.23-5.45-5.73-8.31-1.51-2.86-2.26-6-2.26-9.41v-1.64h4.98v1.32c0,3.08.72,5.82,2.17,8.22,1.45,2.41,3.19,4.8,5.23,7.17l2.79,3.2c1.64,1.89,3.2,3.94,4.66,6.17,1.46,2.22,2.65,4.74,3.56,7.56.91,2.82,1.37,6.04,1.37,9.66v.05c0,3.62-.56,6.89-1.69,9.8-1.13,2.91-2.7,5.39-4.73,7.45-2.03,2.06-4.39,3.62-7.1,4.7-2.71,1.08-5.63,1.62-8.77,1.62-4.54,0-8.47-1-11.81-3.01Z"/>
          <path class="cls-3" d="m737.97,65.78c-3.37-1.78-5.92-4.22-7.67-7.31-1.75-3.09-2.63-6.57-2.63-10.44v-.09c0-.91.05-1.8.16-2.65.11-.85.25-1.69.43-2.51h4.98c-.15.79-.27,1.59-.34,2.4-.08.81-.11,1.61-.11,2.4v.09c0,3.2.69,6.02,2.06,8.47,1.37,2.45,3.36,4.35,5.96,5.71,2.6,1.35,5.78,2.03,9.52,2.03,3.53,0,6.62-.64,9.27-1.92,2.65-1.28,4.71-3.04,6.17-5.3,1.46-2.25,2.19-4.81,2.19-7.67v-.09c0-2.68-.65-5.1-1.94-7.26-1.29-2.16-3.16-3.88-5.6-5.16-2.44-1.28-5.39-1.92-8.86-1.92h-4.61v-4.52h4.93c3.23,0,5.92-.51,8.08-1.53,2.16-1.02,3.78-2.42,4.84-4.2,1.07-1.78,1.6-3.8,1.6-6.05v-.09c0-2.74-.69-5.08-2.08-7.03-1.39-1.95-3.26-3.44-5.62-4.48-2.36-1.03-4.97-1.55-7.83-1.55-3.04,0-5.79.56-8.22,1.69-2.44,1.13-4.35,2.78-5.73,4.96-1.39,2.18-2.08,4.83-2.08,7.97v.05c0,.46.02.93.05,1.42.03.49.09.98.18,1.46h-5.07c-.06-.55-.11-1.09-.16-1.62-.05-.53-.07-1.06-.07-1.58v-.05c0-3.9.94-7.25,2.81-10.05,1.87-2.8,4.41-4.97,7.6-6.51,3.2-1.54,6.76-2.31,10.69-2.31s7.35.72,10.44,2.15c3.09,1.43,5.56,3.46,7.4,6.07,1.84,2.62,2.76,5.71,2.76,9.27v.09c0,2.31-.49,4.45-1.46,6.39-.98,1.95-2.44,3.6-4.39,4.96s-4.4,2.28-7.35,2.76v.14c3.04.4,5.66,1.36,7.86,2.9,2.19,1.54,3.89,3.49,5.09,5.85,1.2,2.36,1.8,5.02,1.8,7.97v.09c0,3.78-.98,7.12-2.92,10.03-1.95,2.91-4.64,5.18-8.06,6.81-3.43,1.63-7.36,2.44-11.81,2.44-4.81,0-8.9-.89-12.26-2.67Z"/>
          <path class="cls-3" d="m781.84,52.19c-1.22-5.54-1.83-11.74-1.83-18.59v-.14c0-7.43.93-13.57,2.79-18.43,1.86-4.86,4.48-8.49,7.88-10.89,3.4-2.41,7.42-3.61,12.08-3.61s8.69,1.2,12.08,3.61c3.4,2.41,6.01,6.04,7.83,10.92,1.83,4.87,2.74,11.01,2.74,18.41v.14c0,6.88-.6,13.07-1.8,18.57-1.2,5.5-2.72,10.59-4.54,15.28h-5.21c2.16-5.18,3.79-10.54,4.89-16.1,1.1-5.56,1.64-11.43,1.64-17.61v-.14c0-9.65-1.55-16.8-4.66-21.44-3.11-4.64-7.43-6.97-12.97-6.97-3.69,0-6.85,1.03-9.5,3.08-2.65,2.06-4.67,5.18-6.07,9.36-1.4,4.19-2.1,9.51-2.1,15.96v.14c0,6.61.61,12.71,1.83,18.32,1.22,5.6,2.77,10.73,4.66,15.39h-5.21c-1.8-4.63-3.3-9.71-4.52-15.26Z"/>
          <path class="cls-3" d="m838.98,59.41c-3.75-6.03-5.62-14.33-5.62-24.89v-.09c0-6.91.84-12.91,2.51-18,1.67-5.09,4.16-9.01,7.45-11.76,3.29-2.76,7.32-4.13,12.1-4.13,3.47,0,6.46.72,8.98,2.15,2.51,1.43,4.56,3.4,6.14,5.92,1.58,2.51,2.69,5.4,3.33,8.66h.14c.46-3.32,1.36-6.23,2.72-8.75,1.35-2.51,3.19-4.47,5.5-5.87,2.31-1.4,5.1-2.1,8.36-2.1,5.85,0,10.36,2.49,13.54,7.47,3.18,4.98,4.77,12.87,4.77,23.68v.05c0,4.9-.42,9.55-1.26,13.93-.84,4.38-1.92,8.41-3.24,12.08s-2.75,6.9-4.27,9.71h-5.25c2.62-4.87,4.77-10.32,6.44-16.35,1.67-6.03,2.51-12.48,2.51-19.37v-.05c0-6.39-.55-11.53-1.64-15.42s-2.67-6.7-4.73-8.45c-2.06-1.75-4.54-2.63-7.47-2.63-4.14,0-7.35,1.67-9.64,5.02-2.28,3.35-3.43,8.47-3.43,15.35v8.45c0,10.93-1.85,19.41-5.55,25.42-3.7,6.01-9.08,9.02-16.15,9.02s-12.52-3.01-16.26-9.04Zm25.56.85c2.48-2.36,4.34-5.75,5.57-10.16,1.23-4.42,1.85-9.71,1.85-15.9v-.09c0-6.7-.67-12.18-2.01-16.44-1.34-4.26-3.24-7.41-5.69-9.43-2.45-2.02-5.37-3.04-8.75-3.04-3.78,0-6.92,1.2-9.43,3.61-2.51,2.41-4.4,5.79-5.66,10.16-1.26,4.37-1.9,9.52-1.9,15.46v.09c0,6.06.62,11.28,1.87,15.67,1.25,4.38,3.11,7.75,5.6,10.09,2.48,2.35,5.56,3.52,9.25,3.52s6.81-1.18,9.3-3.54Z"/>
        </g>
        <g>
          <path class="cls-3" d="m612.59,209.28c-3.46-1.95-6.18-4.67-8.18-8.18-1.99-3.5-2.99-7.61-2.99-12.33v-.09c0-4.75,1-8.86,2.99-12.33,1.99-3.47,4.71-6.16,8.15-8.06,3.44-1.9,7.35-2.85,11.74-2.85s8.44.94,11.9,2.83c3.46,1.89,6.17,4.58,8.15,8.06,1.98,3.49,2.97,7.6,2.97,12.35v.09c0,4.72-.99,8.83-2.97,12.33-1.98,3.5-4.7,6.23-8.15,8.18-3.46,1.95-7.39,2.92-11.81,2.92s-8.35-.98-11.81-2.92Zm20.99-4c2.68-1.51,4.79-3.66,6.33-6.46,1.54-2.8,2.31-6.14,2.31-10v-.09c0-3.9-.76-7.25-2.28-10.05-1.52-2.8-3.63-4.95-6.33-6.44-2.69-1.49-5.79-2.24-9.29-2.24s-6.49.75-9.16,2.24c-2.67,1.49-4.77,3.64-6.3,6.44-1.54,2.8-2.31,6.15-2.31,10.05v.09c0,3.87.78,7.2,2.35,10,1.57,2.8,3.7,4.96,6.4,6.46,2.69,1.51,5.75,2.26,9.16,2.26s6.46-.75,9.14-2.26Zm-9.82-43.83c0-1.43-.33-2.62-.98-3.56-.66-.94-1.46-1.78-2.42-2.51-.96-.73-1.93-1.5-2.9-2.31-.98-.81-1.78-1.76-2.42-2.85s-.96-2.48-.96-4.16v-.78h4.98v.27c0,1.34.33,2.44.98,3.31.65.87,1.46,1.65,2.42,2.35.96.7,1.93,1.46,2.9,2.28.97.82,1.78,1.83,2.42,3.04.64,1.2.96,2.75.96,4.64v5.94h-4.98v-5.66Z"/>
          <path class="cls-3" d="m663.88,209.49c-3.36-1.81-6.01-4.38-7.95-7.72-1.93-3.33-2.9-7.3-2.9-11.9v-.05c0-1.16.06-2.28.18-3.36.12-1.08.33-2.19.64-3.31h4.98c-.21,1-.38,2.03-.5,3.06-.12,1.04-.18,2.13-.18,3.29v.05c0,3.81.74,7.05,2.22,9.73,1.48,2.68,3.51,4.73,6.1,6.14,2.59,1.42,5.54,2.12,8.86,2.12s6.23-.72,8.84-2.17c2.6-1.45,4.66-3.52,6.17-6.21s2.26-5.9,2.26-9.61v-24.03c0-5.18-1.52-9.24-4.54-12.2-3.03-2.95-7-4.43-11.9-4.43-3.32,0-6.17.68-8.56,2.03-2.39,1.35-4.22,3.22-5.48,5.6-1.26,2.38-1.9,5.12-1.9,8.22v.09c0,.7.02,1.42.07,2.15.05.73.13,1.48.25,2.24h-5.07c-.21-1.52-.32-2.98-.32-4.38v-.09c0-4.17.91-7.79,2.72-10.85,1.81-3.06,4.32-5.43,7.51-7.1,3.2-1.67,6.87-2.51,11.01-2.51s7.85.85,11.03,2.56c3.18,1.71,5.67,4.13,7.47,7.29,1.8,3.15,2.69,6.87,2.69,11.17v24.44c0,3.47-.56,6.59-1.69,9.36-1.13,2.77-2.69,5.13-4.7,7.08-2.01,1.95-4.37,3.44-7.08,4.48-2.71,1.04-5.63,1.55-8.77,1.55-4.26,0-8.08-.91-11.44-2.72Z"/>
          <path class="cls-3" d="m717.07,209.58c-3.35-1.75-5.98-4.14-7.88-7.17-1.9-3.03-2.85-6.49-2.85-10.39v-.05c0-.7.04-1.39.11-2.08.08-.69.17-1.36.3-2.03h4.98c-.09.58-.17,1.16-.23,1.76-.06.59-.09,1.18-.09,1.76v.09c0,3.35.78,6.23,2.33,8.66,1.55,2.42,3.63,4.26,6.23,5.53,2.6,1.26,5.47,1.9,8.61,1.9,3.35,0,6.33-.71,8.93-2.15,2.6-1.43,4.65-3.48,6.14-6.14,1.49-2.66,2.24-5.84,2.24-9.52v-40.24l-26.22,7.22v.14c1.92.09,3.78.55,5.6,1.37,1.81.82,3.3,2,4.45,3.54,1.16,1.54,1.74,3.45,1.74,5.73v.05c0,2.38-.66,4.43-1.99,6.17-1.32,1.74-3.14,3.08-5.44,4.04-2.3.96-4.91,1.44-7.83,1.44-1.55,0-3.15-.13-4.8-.39-1.64-.26-3.01-.59-4.11-.98v-4.34c.91.3,2.13.59,3.65.87,1.52.27,3.15.41,4.89.41,3.11,0,5.64-.66,7.6-1.99,1.96-1.32,2.95-3.23,2.95-5.73v-.05c0-2.28-1-4.18-2.99-5.69-1.99-1.51-4.88-2.26-8.66-2.26h-3.61v-4.2l35.4-9.55h4.34v44.63c0,4.45-.97,8.34-2.9,11.69-1.93,3.35-4.58,5.95-7.95,7.81s-7.18,2.79-11.44,2.79-8.16-.88-11.51-2.63Z"/>
          <path class="cls-3" d="m772.55,209.49c-3.37-1.81-6.01-4.38-7.92-7.72s-2.88-7.3-2.88-11.9v-.05c0-1.16.06-2.28.18-3.36.12-1.08.32-2.19.59-3.31h5.02c-.21,1-.38,2.03-.5,3.06-.12,1.04-.18,2.13-.18,3.29v.05c0,3.81.74,7.05,2.22,9.73,1.48,2.68,3.5,4.73,6.07,6.14,2.57,1.42,5.52,2.12,8.84,2.12s6.24-.72,8.86-2.17c2.62-1.45,4.67-3.52,6.17-6.21,1.49-2.69,2.24-5.9,2.24-9.61v-29.23c0-3.78-.98-6.62-2.92-8.52-1.95-1.9-4.38-2.85-7.31-2.85s-5.29.96-7.19,2.88c-1.9,1.92-2.85,4.67-2.85,8.27v10.23h-5.02v-10.41c0-3.5-.76-6.14-2.28-7.92-1.52-1.78-3.81-2.67-6.85-2.67h-6.3v-4.7h6.81c2.74,0,5.12.72,7.15,2.17,2.02,1.45,3.36,3.94,4,7.47h.14c.52-2.38,1.45-4.29,2.79-5.73,1.34-1.45,2.92-2.51,4.73-3.2,1.81-.69,3.68-1.03,5.6-1.03,2.59,0,4.99.55,7.19,1.64,2.21,1.1,3.99,2.79,5.34,5.09,1.35,2.3,2.03,5.26,2.03,8.88v29.83c0,3.47-.56,6.59-1.69,9.36-1.13,2.77-2.7,5.13-4.73,7.08-2.03,1.95-4.38,3.44-7.08,4.48-2.69,1.04-5.63,1.55-8.79,1.55-4.26,0-8.08-.91-11.44-2.72Z"/>
          <path class="cls-3" d="m824.39,209.19c-3.33-2.01-5.92-4.8-7.74-8.38s-2.74-7.7-2.74-12.36v-.09c0-1.28.09-2.6.27-3.95.18-1.35.46-2.67.82-3.95h5.02c-.34,1.25-.59,2.53-.75,3.84-.17,1.31-.25,2.63-.25,3.97v.09c0,3.9.72,7.29,2.15,10.16,1.43,2.88,3.43,5.1,6.01,6.67,2.57,1.57,5.56,2.35,8.98,2.35s6.41-.79,9-2.38c2.59-1.58,4.61-3.79,6.05-6.62s2.17-6.12,2.17-9.87v-.05c-.03-3.14-.43-5.9-1.21-8.29-.78-2.39-1.8-4.54-3.06-6.46-1.26-1.92-2.64-3.75-4.13-5.48l-3.24-3.75c-2.31-2.68-4.23-5.45-5.73-8.31-1.51-2.86-2.26-6-2.26-9.41v-1.64h4.98v1.32c0,3.08.72,5.82,2.17,8.22,1.45,2.41,3.19,4.8,5.23,7.17l2.79,3.2c1.64,1.89,3.2,3.94,4.66,6.17,1.46,2.22,2.65,4.74,3.56,7.56.91,2.82,1.37,6.04,1.37,9.66v.05c0,3.62-.56,6.89-1.69,9.8-1.13,2.91-2.7,5.39-4.73,7.45-2.03,2.06-4.39,3.62-7.1,4.7-2.71,1.08-5.63,1.62-8.77,1.62-4.54,0-8.47-1-11.81-3.01Z"/>
          <path class="cls-3" d="m875.84,209.19c-3.38-2.01-6.01-4.78-7.88-8.31-1.87-3.53-2.81-7.57-2.81-12.1v-.05c0-4.6.94-8.62,2.81-12.08,1.87-3.46,4.45-6.14,7.74-8.06,3.29-1.92,7.03-2.88,11.24-2.88,2.86,0,5.53.46,8.02,1.37,2.48.91,4.64,2.23,6.46,3.95,1.83,1.72,3.18,3.78,4.07,6.19h.14v-17.54c0-3.47-.97-6.15-2.9-8.04-1.93-1.89-4.33-2.83-7.19-2.83-2.68,0-4.93.82-6.76,2.47-1.83,1.64-2.74,3.94-2.74,6.9v2.74h-4.98v-3.01c0-2.92-.79-5.15-2.38-6.69-1.58-1.54-3.7-2.31-6.35-2.31-1.49,0-2.88.2-4.16.59-1.28.4-2.39.88-3.33,1.46v-4.61c1.03-.61,2.26-1.1,3.68-1.48,1.42-.38,2.85-.57,4.32-.57,2.53,0,4.78.65,6.76,1.94,1.98,1.29,3.32,3.48,4.02,6.55h.14c.58-2.04,1.53-3.68,2.85-4.91,1.32-1.23,2.85-2.14,4.57-2.72,1.72-.58,3.43-.87,5.14-.87,2.5,0,4.83.54,7.01,1.62,2.18,1.08,3.94,2.72,5.3,4.91,1.35,2.19,2.03,4.96,2.03,8.31v29.55c0,4.87-1.02,9.07-3.06,12.58-2.04,3.52-4.79,6.22-8.24,8.11-3.46,1.89-7.35,2.83-11.67,2.83s-8.45-1-11.83-3.01Zm21.13-4c2.69-1.57,4.82-3.75,6.37-6.55,1.55-2.8,2.33-6.04,2.33-9.73v-.05c0-3.59-.76-6.78-2.28-9.57-1.52-2.79-3.62-4.98-6.3-6.58-2.68-1.6-5.77-2.4-9.27-2.4s-6.48.78-9.11,2.33c-2.63,1.55-4.7,3.72-6.19,6.49-1.49,2.77-2.24,6-2.24,9.68v.05c0,3.75.75,7.02,2.24,9.82,1.49,2.8,3.55,4.98,6.19,6.53,2.63,1.55,5.66,2.33,9.07,2.33s6.51-.78,9.2-2.35Z"/>
          <path class="cls-3" d="m929.13,209.54c-3.37-1.78-5.92-4.22-7.67-7.31-1.75-3.09-2.63-6.57-2.63-10.44v-.09c0-.91.05-1.8.16-2.65.11-.85.25-1.69.43-2.51h4.98c-.15.79-.27,1.59-.34,2.4-.08.81-.11,1.61-.11,2.4v.09c0,3.2.69,6.02,2.06,8.47,1.37,2.45,3.36,4.35,5.96,5.71,2.6,1.35,5.78,2.03,9.52,2.03,3.53,0,6.62-.64,9.27-1.92,2.65-1.28,4.71-3.04,6.17-5.3,1.46-2.25,2.19-4.81,2.19-7.67v-.09c0-2.68-.65-5.1-1.94-7.26-1.29-2.16-3.16-3.88-5.6-5.16-2.44-1.28-5.39-1.92-8.86-1.92h-4.61v-4.52h4.93c3.23,0,5.92-.51,8.08-1.53,2.16-1.02,3.78-2.42,4.84-4.2,1.07-1.78,1.6-3.8,1.6-6.05v-.09c0-2.74-.69-5.08-2.08-7.03-1.39-1.95-3.26-3.44-5.62-4.48-2.36-1.03-4.97-1.55-7.83-1.55-3.04,0-5.79.56-8.22,1.69-2.44,1.13-4.35,2.78-5.73,4.96-1.39,2.18-2.08,4.83-2.08,7.97v.05c0,.46.02.93.05,1.42.03.49.09.98.18,1.46h-5.07c-.06-.55-.11-1.09-.16-1.62-.05-.53-.07-1.06-.07-1.58v-.05c0-3.9.94-7.25,2.81-10.05,1.87-2.8,4.41-4.97,7.6-6.51,3.2-1.54,6.76-2.31,10.69-2.31s7.35.72,10.44,2.15c3.09,1.43,5.56,3.46,7.4,6.07,1.84,2.62,2.76,5.71,2.76,9.27v.09c0,2.31-.49,4.45-1.46,6.39-.98,1.95-2.44,3.6-4.39,4.96s-4.4,2.28-7.35,2.76v.14c3.04.4,5.66,1.36,7.86,2.9,2.19,1.54,3.89,3.49,5.09,5.85,1.2,2.36,1.8,5.02,1.8,7.97v.09c0,3.78-.98,7.12-2.92,10.03-1.95,2.91-4.64,5.18-8.06,6.81-3.43,1.63-7.36,2.44-11.81,2.44-4.81,0-8.9-.89-12.26-2.67Z"/>
          <path class="cls-3" d="m973,195.95c-1.22-5.54-1.83-11.74-1.83-18.59v-.14c0-7.43.93-13.57,2.79-18.43,1.86-4.86,4.48-8.49,7.88-10.89,3.4-2.41,7.42-3.61,12.08-3.61s8.69,1.2,12.08,3.61c3.4,2.41,6.01,6.04,7.83,10.92,1.83,4.87,2.74,11.01,2.74,18.41v.14c0,6.88-.6,13.07-1.8,18.57-1.2,5.5-2.72,10.59-4.54,15.28h-5.21c2.16-5.18,3.79-10.54,4.89-16.1,1.1-5.56,1.64-11.43,1.64-17.61v-.14c0-9.65-1.55-16.8-4.66-21.44-3.11-4.64-7.43-6.97-12.97-6.97-3.69,0-6.85,1.03-9.5,3.08-2.65,2.06-4.67,5.18-6.07,9.36-1.4,4.19-2.1,9.51-2.1,15.96v.14c0,6.61.61,12.71,1.83,18.32,1.22,5.6,2.77,10.73,4.66,15.39h-5.21c-1.8-4.63-3.3-9.71-4.52-15.26Z"/>
          <path class="cls-3" d="m1075.72,204.19c-2.31-1.69-5.14-2.89-8.47-3.61-3.33-.72-6.89-1.07-10.67-1.07h-21.19v-4.16h10.92v-.14c-4.2-.85-8.05-2.45-11.53-4.8-3.49-2.34-6.27-5.46-8.36-9.34-2.09-3.88-3.13-8.56-3.13-14.05v-.05c0-4.54.72-8.5,2.17-11.9,1.45-3.4,3.48-6.04,6.1-7.95,2.62-1.9,5.66-2.85,9.14-2.85,2.1,0,4.11.41,6.03,1.23s3.59,2.08,5,3.77,2.37,3.88,2.85,6.55h.14c.52-2.68,1.48-4.86,2.9-6.55,1.42-1.69,3.1-2.95,5.05-3.77,1.95-.82,3.96-1.23,6.03-1.23s4.13.41,6.08,1.23c1.95.82,3.64,2.08,5.07,3.77,1.43,1.69,2.36,3.88,2.79,6.55h.18c.76-3.9,2.47-6.8,5.12-8.7,2.65-1.9,5.63-2.85,8.95-2.85,3.53,0,6.58.94,9.14,2.81,2.56,1.87,4.53,4.48,5.92,7.83,1.39,3.35,2.08,7.25,2.08,11.69v.05c0,3.78-.37,7.34-1.12,10.69-.75,3.35-1.79,6.4-3.13,9.14h-5.16c1.37-2.74,2.44-5.74,3.2-9,.76-3.26,1.14-6.79,1.14-10.6v-.05c0-3.47-.5-6.55-1.51-9.25s-2.44-4.81-4.32-6.35-4.12-2.31-6.74-2.31c-3.32,0-6.01,1.23-8.08,3.7-2.07,2.47-3.11,6-3.11,10.6v13.89h-4.98v-14.57c0-4.38-1.04-7.75-3.11-10.09s-4.87-3.52-8.4-3.52-6.3,1.17-8.38,3.52c-2.09,2.34-3.13,5.71-3.13,10.09v14.57h-5.02v-13.89c0-4.6-1.01-8.13-3.04-10.6-2.03-2.47-4.71-3.7-8.06-3.7-3.75,0-6.79,1.58-9.14,4.73-2.35,3.15-3.52,7.67-3.52,13.54v.05c0,5.27,1.22,9.84,3.65,13.73,2.44,3.88,5.89,6.99,10.37,9.32,4.48,2.33,9.77,3.81,15.9,4.45l4.39.41c4.14.43,7.82,1.28,11.03,2.56,3.21,1.28,5.82,3.04,7.81,5.28,1.99,2.24,3.24,4.97,3.72,8.2h-5.16c-.61-2.98-2.07-5.32-4.38-7.01Z"/>
          <path class="cls-3" d="m1122.59,195.95c-1.22-5.54-1.83-11.74-1.83-18.59v-.14c0-7.43.93-13.57,2.79-18.43,1.86-4.86,4.48-8.49,7.88-10.89,3.4-2.41,7.42-3.61,12.08-3.61s8.69,1.2,12.08,3.61c3.4,2.41,6.01,6.04,7.83,10.92,1.83,4.87,2.74,11.01,2.74,18.41v.14c0,6.88-.6,13.07-1.8,18.57-1.2,5.5-2.72,10.59-4.54,15.28h-5.21c2.16-5.18,3.79-10.54,4.89-16.1,1.1-5.56,1.64-11.43,1.64-17.61v-.14c0-9.65-1.55-16.8-4.66-21.44-3.11-4.64-7.43-6.97-12.97-6.97-3.69,0-6.85,1.03-9.5,3.08-2.65,2.06-4.67,5.18-6.07,9.36-1.4,4.19-2.1,9.51-2.1,15.96v.14c0,6.61.61,12.71,1.83,18.32,1.22,5.6,2.77,10.73,4.66,15.39h-5.21c-1.8-4.63-3.3-9.71-4.52-15.26Z"/>
          <path class="cls-3" d="m1189.98,210.61c-2.76-1.07-5.17-2.6-7.24-4.61s-3.69-4.45-4.86-7.33c-1.17-2.88-1.76-6.11-1.76-9.71v-43.67h4.98v43.71c0,3.62.77,6.84,2.31,9.64,1.54,2.8,3.65,4.99,6.33,6.55,2.68,1.57,5.74,2.35,9.18,2.35s6.42-.67,9.02-2.01c2.6-1.34,4.64-3.21,6.12-5.62,1.48-2.4,2.22-5.21,2.22-8.4v-.05c0-2.34-.4-4.39-1.19-6.12-.79-1.74-1.76-3.29-2.9-4.66s-2.3-2.72-3.47-4.06c-1.17-1.34-2.15-2.79-2.92-4.36-.78-1.57-1.17-3.4-1.17-5.5v-.69h4.98v.32c0,1.77.4,3.33,1.19,4.7.79,1.37,1.77,2.69,2.95,3.97,1.17,1.28,2.34,2.67,3.49,4.16,1.16,1.49,2.13,3.23,2.92,5.21.79,1.98,1.19,4.37,1.19,7.17v.05c0,3.93-.96,7.45-2.88,10.55s-4.57,5.55-7.95,7.33c-3.38,1.78-7.25,2.67-11.6,2.67-3.2,0-6.17-.53-8.93-1.6Z"/>
        </g>
        <g>
          <path class="cls-3" d="m612.82,353.08c-3.46-1.92-6.18-4.61-8.18-8.08-2-3.47-2.99-7.51-2.99-12.1v-.09c0-4.51.91-8.4,2.74-11.69,1.83-3.29,4.35-5.89,7.58-7.81,3.23-1.92,6.93-3.11,11.1-3.56l1.42-.14c1.34-.12,2.71-.34,4.11-.66,1.4-.32,2.69-.8,3.88-1.44s2.15-1.5,2.9-2.58c.75-1.08,1.12-2.47,1.12-4.18v-.05c0-2.47-1.09-4.48-3.27-6.03-2.18-1.55-5-2.33-8.47-2.33s-6.54.89-9.02,2.67c-2.48,1.78-3.72,4.15-3.72,7.1v.09h-5.07v-.18c0-2.74.8-5.16,2.4-7.26s3.75-3.75,6.46-4.93c2.71-1.19,5.74-1.78,9.09-1.78,3.01,0,5.78.5,8.29,1.51s4.54,2.44,6.07,4.32,2.31,4.1,2.31,6.69v.05c0,2.19-.49,4.03-1.46,5.5-.98,1.48-2.25,2.63-3.84,3.47-1.58.84-3.27,1.41-5.07,1.71v.09c3.41.64,6.33,1.96,8.77,3.95,2.44,1.99,4.31,4.49,5.62,7.49,1.31,3,1.96,6.33,1.96,9.98v.09c0,4.6-1,8.63-2.99,12.1-2,3.47-4.72,6.17-8.18,8.08-3.46,1.92-7.39,2.88-11.81,2.88s-8.31-.96-11.76-2.88Zm20.97-4.02c2.69-1.49,4.81-3.62,6.35-6.37,1.54-2.76,2.31-6.01,2.31-9.75v-.09c0-3.84-.78-7.14-2.33-9.91-1.55-2.77-3.68-4.91-6.37-6.42-2.7-1.51-5.72-2.26-9.07-2.26s-6.33.75-9.04,2.26c-2.71,1.51-4.86,3.65-6.46,6.42-1.6,2.77-2.4,6.08-2.4,9.91v.09c0,3.75.78,7,2.35,9.75,1.57,2.76,3.69,4.88,6.37,6.37,2.68,1.49,5.71,2.24,9.09,2.24s6.51-.75,9.2-2.24Z"/>
          <path class="cls-3" d="m663.2,352.95c-3.33-2.01-5.92-4.8-7.74-8.38s-2.74-7.7-2.74-12.36v-.09c0-1.28.09-2.6.27-3.95.18-1.35.46-2.67.82-3.95h5.02c-.34,1.25-.59,2.53-.75,3.84-.17,1.31-.25,2.63-.25,3.97v.09c0,3.9.72,7.29,2.15,10.16,1.43,2.88,3.43,5.1,6.01,6.67,2.57,1.57,5.56,2.35,8.98,2.35s6.41-.79,9-2.38c2.59-1.58,4.61-3.79,6.05-6.62s2.17-6.12,2.17-9.87v-.05c-.03-3.14-.43-5.9-1.21-8.29-.78-2.39-1.8-4.54-3.06-6.46-1.26-1.92-2.64-3.75-4.13-5.48l-3.24-3.75c-2.31-2.68-4.23-5.45-5.73-8.31-1.51-2.86-2.26-6-2.26-9.41v-1.64h4.98v1.32c0,3.08.72,5.82,2.17,8.22,1.45,2.41,3.19,4.8,5.23,7.17l2.79,3.2c1.64,1.89,3.2,3.94,4.66,6.17,1.46,2.22,2.65,4.74,3.56,7.56.91,2.82,1.37,6.04,1.37,9.66v.05c0,3.62-.56,6.89-1.69,9.8-1.13,2.91-2.7,5.39-4.73,7.45-2.03,2.06-4.39,3.62-7.1,4.7-2.71,1.08-5.63,1.62-8.77,1.62-4.54,0-8.47-1-11.81-3.01Z"/>
          <path class="cls-3" d="m716.69,353.15c-3.43-1.87-6.15-4.56-8.18-8.06-2.03-3.5-3.04-7.67-3.04-12.52v-27.09c0-3.26.75-6.12,2.26-8.59,1.51-2.47,3.68-4.39,6.51-5.78,2.83-1.39,6.23-2.08,10.19-2.08h21.24v4.57h-21.01c-4.39,0-7.84,1.04-10.37,3.13-2.53,2.09-3.79,5.11-3.79,9.07v14.75h.14c.88-2.38,2.24-4.42,4.07-6.12,1.83-1.71,3.99-3.04,6.49-4,2.5-.96,5.18-1.44,8.04-1.44,4.26,0,8.02.97,11.28,2.9,3.26,1.93,5.81,4.64,7.65,8.11,1.84,3.47,2.76,7.54,2.76,12.2v.05c0,4.63-.97,8.73-2.9,12.31-1.93,3.58-4.61,6.37-8.02,8.38-3.41,2.01-7.37,3.01-11.88,3.01-4.2,0-8.02-.94-11.44-2.81Zm20.62-4.18c2.65-1.55,4.73-3.75,6.26-6.6,1.52-2.85,2.28-6.19,2.28-10.03v-.05c0-3.78-.74-7.06-2.22-9.84s-3.53-4.95-6.17-6.49c-2.63-1.54-5.72-2.31-9.25-2.31s-6.58.8-9.25,2.4-4.75,3.81-6.26,6.62c-1.51,2.82-2.26,6.05-2.26,9.71v.09c0,3.75.78,7.03,2.33,9.84,1.55,2.82,3.66,5.02,6.33,6.6,2.66,1.58,5.67,2.38,9.02,2.38s6.53-.78,9.18-2.33Z"/>
          <path class="cls-3" d="m766.93,352.95c-3.33-2.01-5.92-4.8-7.74-8.38s-2.74-7.7-2.74-12.36v-.09c0-1.28.09-2.6.27-3.95.18-1.35.46-2.67.82-3.95h5.02c-.34,1.25-.59,2.53-.75,3.84-.17,1.31-.25,2.63-.25,3.97v.09c0,3.9.72,7.29,2.15,10.16,1.43,2.88,3.43,5.1,6.01,6.67,2.57,1.57,5.56,2.35,8.98,2.35s6.41-.79,9-2.38c2.59-1.58,4.61-3.79,6.05-6.62s2.17-6.12,2.17-9.87v-.05c-.03-3.14-.43-5.9-1.21-8.29-.78-2.39-1.8-4.54-3.06-6.46-1.26-1.92-2.64-3.75-4.13-5.48l-3.24-3.75c-2.31-2.68-4.23-5.45-5.73-8.31-1.51-2.86-2.26-6-2.26-9.41v-1.64h4.98v1.32c0,3.08.72,5.82,2.17,8.22,1.45,2.41,3.19,4.8,5.23,7.17l2.79,3.2c1.64,1.89,3.2,3.94,4.66,6.17,1.46,2.22,2.65,4.74,3.56,7.56.91,2.82,1.37,6.04,1.37,9.66v.05c0,3.62-.56,6.89-1.69,9.8-1.13,2.91-2.7,5.39-4.73,7.45-2.03,2.06-4.39,3.62-7.1,4.7-2.71,1.08-5.63,1.62-8.77,1.62-4.54,0-8.47-1-11.81-3.01Z"/>
          <path class="cls-3" d="m813.36,346.92c-3.75-6.03-5.62-14.33-5.62-24.89v-.09c0-6.91.84-12.91,2.51-18,1.67-5.09,4.16-9.01,7.45-11.76,3.29-2.76,7.32-4.13,12.1-4.13,3.47,0,6.46.72,8.98,2.15,2.51,1.43,4.56,3.4,6.14,5.92,1.58,2.51,2.69,5.4,3.33,8.66h.14c.46-3.32,1.36-6.23,2.72-8.75,1.35-2.51,3.19-4.47,5.5-5.87,2.31-1.4,5.1-2.1,8.36-2.1,5.85,0,10.36,2.49,13.54,7.47,3.18,4.98,4.77,12.87,4.77,23.68v.05c0,4.9-.42,9.55-1.26,13.93-.84,4.38-1.92,8.41-3.24,12.08s-2.75,6.9-4.27,9.71h-5.25c2.62-4.87,4.77-10.32,6.44-16.35,1.67-6.03,2.51-12.48,2.51-19.37v-.05c0-6.39-.55-11.53-1.64-15.42s-2.67-6.7-4.73-8.45c-2.06-1.75-4.54-2.63-7.47-2.63-4.14,0-7.35,1.67-9.64,5.02-2.28,3.35-3.43,8.47-3.43,15.35v8.45c0,10.93-1.85,19.41-5.55,25.42-3.7,6.01-9.08,9.02-16.15,9.02s-12.52-3.01-16.26-9.04Zm25.56.85c2.48-2.36,4.34-5.75,5.57-10.16,1.23-4.42,1.85-9.71,1.85-15.9v-.09c0-6.7-.67-12.18-2.01-16.44-1.34-4.26-3.24-7.41-5.69-9.43-2.45-2.02-5.37-3.04-8.75-3.04-3.78,0-6.92,1.2-9.43,3.61-2.51,2.41-4.4,5.79-5.66,10.16-1.26,4.37-1.9,9.52-1.9,15.46v.09c0,6.06.62,11.28,1.87,15.67,1.25,4.38,3.11,7.75,5.6,10.09,2.48,2.35,5.56,3.52,9.25,3.52s6.81-1.18,9.3-3.54Z"/>
          <path class="cls-3" d="m942.44,347.94c-2.31-1.69-5.14-2.89-8.47-3.61-3.33-.72-6.89-1.07-10.67-1.07h-21.19v-4.16h10.92v-.14c-4.2-.85-8.05-2.45-11.53-4.8-3.49-2.34-6.27-5.46-8.36-9.34-2.09-3.88-3.13-8.56-3.13-14.05v-.05c0-4.54.72-8.5,2.17-11.9,1.45-3.4,3.48-6.04,6.1-7.95,2.62-1.9,5.66-2.85,9.14-2.85,2.1,0,4.11.41,6.03,1.23s3.59,2.08,5,3.77,2.37,3.88,2.85,6.55h.14c.52-2.68,1.48-4.86,2.9-6.55,1.42-1.69,3.1-2.95,5.05-3.77,1.95-.82,3.96-1.23,6.03-1.23s4.13.41,6.08,1.23c1.95.82,3.64,2.08,5.07,3.77,1.43,1.69,2.36,3.88,2.79,6.55h.18c.76-3.9,2.47-6.8,5.12-8.7,2.65-1.9,5.63-2.85,8.95-2.85,3.53,0,6.58.94,9.14,2.81,2.56,1.87,4.53,4.48,5.92,7.83,1.39,3.35,2.08,7.25,2.08,11.69v.05c0,3.78-.37,7.34-1.12,10.69-.75,3.35-1.79,6.4-3.13,9.14h-5.16c1.37-2.74,2.44-5.74,3.2-9,.76-3.26,1.14-6.79,1.14-10.6v-.05c0-3.47-.5-6.55-1.51-9.25s-2.44-4.81-4.32-6.35-4.12-2.31-6.74-2.31c-3.32,0-6.01,1.23-8.08,3.7-2.07,2.47-3.11,6-3.11,10.6v13.89h-4.98v-14.57c0-4.38-1.04-7.75-3.11-10.09s-4.87-3.52-8.4-3.52-6.3,1.17-8.38,3.52c-2.09,2.34-3.13,5.71-3.13,10.09v14.57h-5.02v-13.89c0-4.6-1.01-8.13-3.04-10.6-2.03-2.47-4.71-3.7-8.06-3.7-3.75,0-6.79,1.58-9.14,4.73-2.35,3.15-3.52,7.67-3.52,13.54v.05c0,5.27,1.22,9.84,3.65,13.73,2.44,3.88,5.89,6.99,10.37,9.32,4.48,2.33,9.77,3.81,15.9,4.45l4.39.41c4.14.43,7.82,1.28,11.03,2.56,3.21,1.28,5.82,3.04,7.81,5.28,1.99,2.24,3.24,4.97,3.72,8.2h-5.16c-.61-2.98-2.07-5.32-4.38-7.01Z"/>
          <path class="cls-3" d="m997.32,353.24c-3.36-1.81-6.01-4.38-7.95-7.72-1.93-3.33-2.9-7.3-2.9-11.9v-.05c0-1.16.06-2.28.18-3.36.12-1.08.33-2.19.64-3.31h4.98c-.21,1-.38,2.03-.5,3.06-.12,1.04-.18,2.13-.18,3.29v.05c0,3.81.74,7.05,2.22,9.73,1.48,2.68,3.51,4.73,6.1,6.14,2.59,1.42,5.54,2.12,8.86,2.12s6.23-.72,8.84-2.17c2.6-1.45,4.66-3.52,6.17-6.21s2.26-5.9,2.26-9.61v-24.03c0-5.18-1.52-9.24-4.54-12.2-3.03-2.95-7-4.43-11.9-4.43-3.32,0-6.17.68-8.56,2.03-2.39,1.35-4.22,3.22-5.48,5.6-1.26,2.38-1.9,5.12-1.9,8.22v.09c0,.7.02,1.42.07,2.15.05.73.13,1.48.25,2.24h-5.07c-.21-1.52-.32-2.98-.32-4.38v-.09c0-4.17.91-7.79,2.72-10.85,1.81-3.06,4.32-5.43,7.51-7.1,3.2-1.67,6.87-2.51,11.01-2.51s7.85.85,11.03,2.56c3.18,1.71,5.67,4.13,7.47,7.29,1.8,3.15,2.69,6.87,2.69,11.17v24.44c0,3.47-.56,6.59-1.69,9.36-1.13,2.77-2.69,5.13-4.7,7.08-2.01,1.95-4.37,3.44-7.08,4.48-2.71,1.04-5.63,1.55-8.77,1.55-4.26,0-8.08-.91-11.44-2.72Z"/>
          <path class="cls-3" d="m1050.4,353.04c-3.46-1.95-6.18-4.67-8.18-8.18-1.99-3.5-2.99-7.61-2.99-12.33v-.09c0-4.75,1-8.86,2.99-12.33,1.99-3.47,4.71-6.16,8.15-8.06,3.44-1.9,7.35-2.85,11.74-2.85s8.44.94,11.9,2.83c3.46,1.89,6.17,4.58,8.15,8.06,1.98,3.49,2.97,7.6,2.97,12.35v.09c0,4.72-.99,8.83-2.97,12.33-1.98,3.5-4.7,6.23-8.15,8.18-3.46,1.95-7.39,2.92-11.81,2.92s-8.35-.98-11.81-2.92Zm20.99-4c2.68-1.51,4.79-3.66,6.33-6.46,1.54-2.8,2.31-6.14,2.31-10v-.09c0-3.9-.76-7.25-2.28-10.05-1.52-2.8-3.63-4.95-6.33-6.44-2.69-1.49-5.79-2.24-9.29-2.24s-6.49.75-9.16,2.24c-2.67,1.49-4.77,3.64-6.3,6.44-1.54,2.8-2.31,6.15-2.31,10.05v.09c0,3.87.78,7.2,2.35,10,1.57,2.8,3.7,4.96,6.4,6.46,2.69,1.51,5.75,2.26,9.16,2.26s6.46-.75,9.14-2.26Zm-9.82-43.83c0-1.43-.33-2.62-.98-3.56-.66-.94-1.46-1.78-2.42-2.51-.96-.73-1.93-1.5-2.9-2.31-.98-.81-1.78-1.76-2.42-2.85s-.96-2.48-.96-4.16v-.78h4.98v.27c0,1.34.33,2.44.98,3.31.65.87,1.46,1.65,2.42,2.35.96.7,1.93,1.46,2.9,2.28.97.82,1.78,1.83,2.42,3.04.64,1.2.96,2.75.96,4.64v5.94h-4.98v-5.66Z"/>
          <path class="cls-3" d="m1093.67,339.7c-1.22-5.54-1.83-11.74-1.83-18.59v-.14c0-7.43.93-13.57,2.79-18.43,1.86-4.86,4.48-8.49,7.88-10.89,3.4-2.41,7.42-3.61,12.08-3.61s8.69,1.2,12.08,3.61c3.4,2.41,6.01,6.04,7.83,10.92,1.83,4.87,2.74,11.01,2.74,18.41v.14c0,6.88-.6,13.07-1.8,18.57-1.2,5.5-2.72,10.59-4.54,15.28h-5.21c2.16-5.18,3.79-10.54,4.89-16.1,1.1-5.56,1.64-11.43,1.64-17.61v-.14c0-9.65-1.55-16.8-4.66-21.44-3.11-4.64-7.43-6.97-12.97-6.97-3.69,0-6.85,1.03-9.5,3.08-2.65,2.06-4.67,5.18-6.07,9.36-1.4,4.19-2.1,9.51-2.1,15.96v.14c0,6.61.61,12.71,1.83,18.32,1.22,5.6,2.77,10.73,4.66,15.39h-5.21c-1.8-4.63-3.3-9.71-4.52-15.26Z"/>
          <path class="cls-3" d="m1161.07,354.36c-2.76-1.07-5.17-2.6-7.24-4.61s-3.69-4.45-4.86-7.33c-1.17-2.88-1.76-6.11-1.76-9.71v-43.67h4.98v43.71c0,3.62.77,6.84,2.31,9.64,1.54,2.8,3.65,4.99,6.33,6.55,2.68,1.57,5.74,2.35,9.18,2.35s6.42-.67,9.02-2.01c2.6-1.34,4.64-3.21,6.12-5.62,1.48-2.4,2.22-5.21,2.22-8.4v-.05c0-2.34-.4-4.39-1.19-6.12-.79-1.74-1.76-3.29-2.9-4.66s-2.3-2.72-3.47-4.06c-1.17-1.34-2.15-2.79-2.92-4.36-.78-1.57-1.17-3.4-1.17-5.5v-.69h4.98v.32c0,1.77.4,3.33,1.19,4.7.79,1.37,1.77,2.69,2.95,3.97,1.17,1.28,2.34,2.67,3.49,4.16,1.16,1.49,2.13,3.23,2.92,5.21.79,1.98,1.19,4.37,1.19,7.17v.05c0,3.93-.96,7.45-2.88,10.55s-4.57,5.55-7.95,7.33c-3.38,1.78-7.25,2.67-11.6,2.67-3.2,0-6.17-.53-8.93-1.6Z"/>
        </g>
        <g>
          <path class="cls-3" d="m628.76,497.45c-3.64-1.51-6.4-3.43-8.29-5.76-1.89-2.33-2.83-4.74-2.83-7.24v-.23h5.16l.05.23c.06,1.8.83,3.52,2.31,5.18,1.48,1.66,3.65,3.01,6.51,4.04,2.86,1.04,6.4,1.55,10.6,1.55s7.61-.52,10.51-1.55c2.89-1.03,5.1-2.49,6.62-4.36,1.52-1.87,2.28-4.01,2.28-6.42v-.09c0-1.95-.47-3.7-1.42-5.25-.94-1.55-2.37-2.79-4.27-3.72-1.9-.93-4.32-1.39-7.24-1.39h-1.96v-4.52h3.15c3.14,0,5.9-.6,8.29-1.8,2.39-1.2,4.25-3,5.57-5.39,1.32-2.39,1.99-5.35,1.99-8.88v-.05c0-2.89-.43-5.5-1.3-7.81-.87-2.31-2.19-4.15-3.97-5.5-1.78-1.35-4.06-2.03-6.83-2.03-3.78,0-6.81,1.32-9.09,3.95-2.28,2.63-3.43,6.43-3.43,11.4v2.47c0,4.35-.88,8.19-2.65,11.51-1.77,3.32-4.2,5.92-7.29,7.79-3.09,1.87-6.66,2.81-10.71,2.81s-7.61-.94-10.69-2.81c-3.08-1.87-5.47-4.46-7.19-7.77-1.72-3.3-2.58-7.09-2.58-11.35v-.05c0-4.54.85-8.5,2.56-11.88,1.71-3.38,4.08-6.01,7.13-7.9,3.04-1.89,6.55-2.83,10.51-2.83,4.54,0,8.42,1.17,11.65,3.52,3.23,2.35,5.36,5.45,6.39,9.32h.14c.7-4.11,2.47-7.28,5.3-9.5,2.83-2.22,6.27-3.33,10.32-3.33,3.56,0,6.6.85,9.11,2.54s4.43,4.02,5.76,6.99,1.99,6.37,1.99,10.21v.05c0,3.65-.64,6.81-1.92,9.46-1.28,2.65-3.03,4.74-5.25,6.28-2.22,1.54-4.74,2.5-7.54,2.9v.14c3.56.64,6.22,2.15,7.97,4.54,1.75,2.39,2.63,5.06,2.63,8.02v.05c0,3.14-.99,5.97-2.97,8.5-1.98,2.53-4.81,4.54-8.5,6.03-3.68,1.49-8.1,2.24-13.25,2.24s-9.68-.75-13.31-2.26Zm-.18-27.54c2.36-1.48,4.22-3.57,5.57-6.28,1.35-2.71,2.03-5.89,2.03-9.55v-.05c0-3.75-.69-6.93-2.08-9.55-1.39-2.62-3.25-4.62-5.6-6.01-2.35-1.39-4.96-2.08-7.86-2.08s-5.7.73-8.06,2.19c-2.36,1.46-4.22,3.54-5.57,6.23-1.36,2.69-2.03,5.89-2.03,9.57v.05c0,3.53.67,6.62,2.01,9.27,1.34,2.65,3.18,4.71,5.53,6.19,2.34,1.48,5.02,2.22,8.04,2.22s5.66-.74,8.02-2.22Z"/>
          <path class="cls-3" d="m680.01,483c-1.72-6.03-2.58-12.67-2.58-19.92v-.18c0-10.72,1.67-18.58,5-23.59,3.33-5.01,8.05-7.51,14.14-7.51,3.81,0,7.08,1.09,9.82,3.27,2.74,2.18,4.55,5.66,5.44,10.44h.14c.88-4.78,2.69-8.26,5.44-10.44,2.74-2.18,6.07-3.27,10-3.27,6,0,10.66,2.5,13.98,7.51,3.32,5.01,4.98,12.87,4.98,23.59v.18c0,4.93-.42,9.58-1.26,13.95-.84,4.37-1.93,8.37-3.27,12.01-1.34,3.64-2.76,6.86-4.25,9.66h-5.25c2.59-4.87,4.72-10.28,6.39-16.24,1.67-5.95,2.51-12.45,2.51-19.48v-.18c0-9.29-1.26-16-3.79-20.14-2.53-4.14-6.06-6.21-10.6-6.21-3.87,0-6.91,1.55-9.14,4.66-2.22,3.11-3.33,8.04-3.33,14.8v22.02h-5.02v-22.02c0-6.76-1.11-11.69-3.33-14.8-2.22-3.11-5.25-4.66-9.09-4.66-4.51,0-8.03,2.06-10.57,6.19-2.54,4.13-3.81,10.85-3.81,20.17v.18c0,7.43.88,14.05,2.63,19.87,1.75,5.82,3.86,11.1,6.33,15.85h-5.25c-2.44-4.45-4.52-9.68-6.23-15.71Z"/>
          <path class="cls-3" d="m766.98,496.9c-3.43-1.87-6.15-4.56-8.18-8.06-2.03-3.5-3.04-7.67-3.04-12.52v-27.09c0-3.26.75-6.12,2.26-8.59,1.51-2.47,3.68-4.39,6.51-5.78,2.83-1.39,6.23-2.08,10.19-2.08h21.24v4.57h-21.01c-4.39,0-7.84,1.04-10.37,3.13-2.53,2.09-3.79,5.11-3.79,9.07v14.75h.14c.88-2.38,2.24-4.42,4.07-6.12,1.83-1.71,3.99-3.04,6.49-4,2.5-.96,5.18-1.44,8.04-1.44,4.26,0,8.02.97,11.28,2.9,3.26,1.93,5.81,4.64,7.65,8.11,1.84,3.47,2.76,7.54,2.76,12.2v.05c0,4.63-.97,8.73-2.9,12.31-1.93,3.58-4.61,6.37-8.02,8.38-3.41,2.01-7.37,3.01-11.88,3.01-4.2,0-8.02-.94-11.44-2.81Zm20.62-4.18c2.65-1.55,4.73-3.75,6.26-6.6,1.52-2.85,2.28-6.19,2.28-10.03v-.05c0-3.78-.74-7.06-2.22-9.84s-3.53-4.95-6.17-6.49c-2.63-1.54-5.72-2.31-9.25-2.31s-6.58.8-9.25,2.4-4.75,3.81-6.26,6.62c-1.51,2.82-2.26,6.05-2.26,9.71v.09c0,3.75.78,7.03,2.33,9.84,1.55,2.82,3.66,5.02,6.33,6.6,2.66,1.58,5.67,2.38,9.02,2.38s6.53-.78,9.18-2.33Z"/>
          <path class="cls-3" d="m852.92,493.59c-1.25-1.43-2.84-2.62-4.77-3.56-1.93-.94-4.09-1.64-6.46-2.1-2.38-.46-4.87-.69-7.49-.69h-17.13v-4.02h10.69v-.18c-2.59-.67-5.1-1.76-7.54-3.27-2.44-1.51-4.63-3.44-6.58-5.8s-3.49-5.12-4.64-8.29c-1.14-3.17-1.71-6.76-1.71-10.78v-.09c0-4.81.75-8.93,2.26-12.36s3.62-6.06,6.33-7.9c2.71-1.84,5.86-2.76,9.46-2.76,3.93,0,7.28,1.13,10.05,3.38,2.77,2.25,4.51,5.48,5.21,9.68h.14c1.07-3.93,3.18-7.09,6.35-9.48,3.17-2.39,6.99-3.59,11.46-3.59,4.05,0,7.6.96,10.67,2.88,3.06,1.92,5.44,4.56,7.15,7.92,1.71,3.37,2.56,7.24,2.56,11.62v.05c0,4.35-.87,8.2-2.6,11.53-1.74,3.33-4.15,5.93-7.24,7.79-3.09,1.86-6.69,2.79-10.8,2.79s-7.52-.91-10.6-2.72c-3.08-1.81-5.49-4.35-7.24-7.63-1.75-3.27-2.63-7.1-2.63-11.49,0-.52,0-.96.02-1.32.02-.37.02-.79.02-1.28,0-5.02-1.13-8.86-3.4-11.51-2.27-2.65-5.28-3.97-9.02-3.97-4.11,0-7.3,1.61-9.57,4.82-2.27,3.21-3.4,7.74-3.4,13.59v.09c0,5.18,1.07,9.68,3.22,13.5,2.15,3.82,5.13,6.94,8.95,9.34,3.82,2.41,8.23,4.08,13.22,5.02l2.24.46c3.04.55,5.76,1.27,8.15,2.17,2.39.9,4.45,1.99,6.17,3.27,1.72,1.28,3.07,2.75,4.04,4.41.97,1.66,1.58,3.52,1.83,5.6h-5.02c-.3-1.98-1.08-3.68-2.33-5.12Zm13.5-23.66c2.33-1.46,4.16-3.53,5.5-6.21,1.34-2.68,2.01-5.83,2.01-9.46v-.05c0-3.59-.67-6.72-2.01-9.39-1.34-2.66-3.19-4.73-5.55-6.21-2.36-1.48-5.06-2.22-8.11-2.22-2.86,0-5.47.69-7.81,2.08-2.35,1.39-4.2,3.4-5.57,6.03-1.37,2.63-2.06,5.82-2.06,9.57v.05c0,3.65.66,6.84,1.99,9.55,1.32,2.71,3.16,4.8,5.5,6.26,2.34,1.46,5.02,2.19,8.04,2.19s5.73-.73,8.06-2.19Z"/>
          <path class="cls-3" d="m887.09,483.45c-1.22-5.54-1.83-11.74-1.83-18.59v-.14c0-7.43.93-13.57,2.79-18.43,1.86-4.86,4.48-8.49,7.88-10.89,3.4-2.41,7.42-3.61,12.08-3.61s8.69,1.2,12.08,3.61c3.4,2.41,6.01,6.04,7.83,10.92,1.83,4.87,2.74,11.01,2.74,18.41v.14c0,6.88-.6,13.07-1.8,18.57-1.2,5.5-2.72,10.59-4.54,15.28h-5.21c2.16-5.18,3.79-10.54,4.89-16.1,1.1-5.56,1.64-11.43,1.64-17.61v-.14c0-9.65-1.55-16.8-4.66-21.44-3.11-4.64-7.43-6.97-12.97-6.97-3.69,0-6.85,1.03-9.5,3.08-2.65,2.06-4.67,5.18-6.07,9.36-1.4,4.19-2.1,9.51-2.1,15.96v.14c0,6.61.61,12.71,1.83,18.32,1.22,5.6,2.77,10.73,4.66,15.39h-5.21c-1.8-4.63-3.3-9.71-4.52-15.26Z"/>
        </g>
      </g>
    </g>
  </g>
</svg>